<svg t="1693025826164" class="icon" viewBox="0 0 1024 1024" version="1.1" xmlns="http://www.w3.org/2000/svg" p-id="2908" width="16" height="16"><path d="M199.237439 884.010015l-5.703755 102.447598a26.046881 26.046881 0 0 0 26.010882 27.498819H309.368707v-129.746425h-107.195394a23.758979 23.758979 0 0 1-2.935874-0.199992zM830.802301 986.453613L825.094547 883.962017c-1.071954 0.147994-2.159907 0.247989-3.26786 0.24799h-106.863408l0.004 129.746425H804.787419a26.05488 26.05488 0 0 0 26.014882-27.502819z" fill="#F9D8B7" p-id="2909"></path><path d="M821.822687 835.924081c0.199991 0 0.395983 0.023999 0.595975 0.031999l-10.647543-191.179785a59.049463 59.049463 0 0 0-44.546086-53.977681l-81.760487-20.579116a540.976755 540.976755 0 0 1-42.062192-12.423466l-36.170446-17.835233-7.275687-3.587846a33.798548 33.798548 0 0 1-18.85119-30.310698v-27.778806c-16.351297 15.003355-34.762506 27.414822-54.609654 36.550429a35.494475 35.494475 0 0 1-29.722723 0c-19.447164-8.955615-37.47839-21.043096-53.545699-35.59847v26.826847a33.790548 33.790548 0 0 1-18.85119 30.310698l-5.35577 2.643886-35.990453 17.747238a517.949744 517.949744 0 0 1-46.406006 14.023397l-79.516584 20.01514a59.057462 59.057462 0 0 0-44.546085 53.977681l-10.647543 191.159786c0.087996 0 0.171993-0.011999 0.259989-0.012h107.195394v178.03235h405.594572l-0.004-129.746425V835.924081h106.863408z" fill="#F9D8B7" p-id="2910"></path><path d="M821.822687 835.924081c0.199991 0 0.395983 0.023999 0.595975 0.031999l-10.647543-191.179785a59.049463 59.049463 0 0 0-44.546086-53.977681l-81.760487-20.579116a540.976755 540.976755 0 0 1-42.062192-12.423466l-31.834632-15.699325-25.230916 34.734507a91.668061 91.668061 0 0 1-148.329627 0l-25.230915-34.734507-29.742722 14.66337a517.949744 517.949744 0 0 1-46.406006 14.023397l-79.516584 20.01514a59.057462 59.057462 0 0 0-44.546086 53.977681l-10.647542 191.159786c0.087996 0 0.171993-0.011999 0.259989-0.012h107.195394V1013.956432h405.598572l-0.004-129.746425V835.924081h106.855408z" fill="#1B87C9" p-id="2911"></path><path d="M656.089809 240.337673c-2.191906 0-4.343813 0.155993-6.467722 0.399983l4.447808 42.882157a233.693958 233.693958 0 0 1-2.891875 68.537055c1.62393 0.139994 3.25586 0.247989 4.911789 0.24799 30.94667 0 56.033592-25.086922 56.033592-56.033593s-25.086922-56.033592-56.033592-56.033592zM369.206136 283.623813l4.6478-37.806375 0.527977-5.075782c-2.123909-0.24399-4.275816-0.399983-6.467722-0.399983-30.94667 0-56.033592 25.086922-56.033592 56.033592s25.086922 56.033592 56.033592 56.033592c1.415939 0 2.80388-0.099996 4.19182-0.21199a233.529966 233.529966 0 0 1-2.899875-68.573054z" fill="#F9D8B7" p-id="2912"></path><path d="M654.065896 283.623813c-2.419896-19.143177-4.823793-41.974196-5.36777-65.361191 0-26.698853-22.519032-45.018066-46.693993-44.474089-24.614942-1.39994-74.836784 29.710723-165.696881-0.46798-32.146619-10.679541-61.009379 14.319385-61.009378 45.478045 0 23.442993-2.967872 36.898415-6.095738 64.829215-10.831535 101.819625 46.142017 193.715676 127.570518 231.206065a35.494475 35.494475 0 0 0 29.722723 0c81.072516-37.330396 138.450051-128.962459 127.570519-231.210065z" fill="#F9D8B7" p-id="2913"></path><path d="M367.910191 240.337673c2.175907 0 4.307815 0.155993 6.419725 0.395983 0.603974-6.791708 0.971958-13.755409 0.971958-21.943057 0-31.158661 28.85876-56.153587 61.009378-45.478046 90.860096 30.178703 141.077938-0.93196 165.69688 0.46798 24.174961-0.543977 46.693994 17.779236 46.693994 44.474089 0.175992 7.587674 0.563976 15.099351 1.067954 22.467034 2.079911-0.23599 4.17982-0.387983 6.319729-0.387983 7.235689 0 14.127393 1.419939 20.47512 3.915832 8.395639-29.414736 25.726895-109.287304-18.323213-152.43745 0 0-14.575374-39.270313-72.884868-46.410006-32.910586-4.031827-55.097633-18.491205-63.401276-30.210702-2.247903-3.171864-5.931745-4.963787-9.811578-5.047783V10.119565c-0.047998 0-0.091996 0.015999-0.139994 0.015999-0.047998 0-0.091996-0.015999-0.139994-0.015999v0.031999c-3.879833 0.083996-7.563675 1.875919-9.811579 5.047783-8.303643 11.719496-30.49069 26.182875-63.401275 30.210702C380.341657 52.549742 365.766283 91.820055 365.766283 91.820055c-44.054107 43.158146-26.718852 123.042713-18.327212 152.43745a55.701607 55.701607 0 0 1 20.47112-3.919832z" fill="#E8B16D" p-id="2914"></path><path d="M589.676662 638.152579a143.389839 143.389839 0 0 0 38.64234-36.406435l28.770764-39.602299c-4.571804-1.419939-9.155607-2.807879-13.691412-4.347813l-31.834632-15.699325-25.230916 34.734507a91.648062 91.648062 0 0 1-28.842761 25.774893l32.186617 35.546472zM433.199386 637.240619l32.142619-35.498475a91.552066 91.552066 0 0 1-27.338825-24.91093l-25.230916-34.734507-29.742722 14.66337c-5.251774 1.85992-10.539547 3.603845-15.847319 5.291772l28.834761 39.694295a143.405838 143.405838 0 0 0 37.182402 35.494475zM821.822687 835.924081h-106.863408v48.285926h106.863408c13.279429 0 24.142963-10.863533 24.142963-24.142963 0-13.279429-10.863533-24.142963-24.142963-24.142963zM309.372707 835.924081h-107.195394c-13.279429 0-24.142963 10.863533-24.142963 24.142963 0 13.279429 10.863533 24.142963 24.142963 24.142963h107.195394V835.924081z" fill="#E8E6E6" p-id="2915"></path><path d="M510.700056 428.397592a53.249712 53.249712 0 0 1-44.178102-23.486991 9.99957 9.99957 0 0 1 16.571288-11.195518 33.298569 33.298569 0 0 0 55.221627 0 9.99957 9.99957 0 0 1 16.571288 11.195518 53.277711 53.277711 0 0 1-44.186101 23.486991zM584.972864 290.103535c-1.583932 0-3.191863-0.375984-4.687798-1.17195-2.515892-1.335943-8.291644-2.687885-15.515333-2.687885s-12.999441 1.351942-15.515334 2.687885a9.99957 9.99957 0 1 1-9.391596-17.655241c6.011742-3.199863 15.091352-5.031784 24.90693-5.031784s18.895188 1.831921 24.906929 5.031784a9.99957 9.99957 0 0 1-4.703798 18.827191zM476.333533 290.103535c-1.583932 0-3.191863-0.375984-4.687799-1.17195-2.515892-1.335943-8.291644-2.687885-15.515333-2.687885s-12.999441 1.351942-15.515334 2.687885a9.99957 9.99957 0 1 1-9.391596-17.655241c6.011742-3.199863 15.091352-5.031784 24.90693-5.031784s18.895188 1.831921 24.906929 5.031784a9.99957 9.99957 0 0 1-4.703797 18.827191zM457.738332 329.185855a11.999484 11.999484 0 0 1-11.999485-11.999484v-2.211905a11.999484 11.999484 0 1 1 23.998969 0v2.211905a11.999484 11.999484 0 0 1-11.999484 11.999484zM563.66178 330.881782a11.999484 11.999484 0 0 1-11.999484-11.999484v-2.211905a11.999484 11.999484 0 1 1 23.998969 0v2.211905a11.999484 11.999484 0 0 1-11.999485 11.999484zM656.089809 362.408428c-1.951916 0-3.879833-0.119995-5.787752-0.287988a9.99957 9.99957 0 0 1-8.943615-11.835491 223.64639 223.64639 0 0 0 2.767881-65.605181l-4.451809-42.910157a10.00357 10.00357 0 0 1 8.807622-10.967528 66.09716 66.09716 0 0 1 7.607673-0.46798c36.410435 0 66.033163 29.622727 66.033162 66.033162s-29.622727 66.041162-66.033162 66.041163z m4.603802-111.839195l3.323857 32.026624a242.669573 242.669573 0 0 1-1.007957 59.297452c22.11505-3.347856 39.118319-22.483034 39.118319-45.518044-0.004-23.830976-18.207218-43.490131-41.434219-45.806032zM367.910191 362.408428c-36.410435 0-66.033163-29.622727-66.033162-66.033163s29.622727-66.033163 66.033162-66.033163c2.379898 0 4.867791 0.151993 7.607673 0.46798a9.99957 9.99957 0 0 1 8.807622 10.967529l-0.527977 5.075782-4.6598 37.910371a223.486397 223.486397 0 0 0 2.78388 65.561183 10.00757 10.00757 0 0 1-9.023612 11.843491c-1.647929 0.127995-3.303858 0.23999-4.987786 0.23999z m-4.719797-111.831195c-23.175004 2.367898-41.318225 22.003055-41.318224 45.794032 0 22.775021 16.623286 41.742206 38.374351 45.39805a242.689572 242.689572 0 0 1-0.987958-59.205456l0.015999-0.163993 3.915832-31.822633z" fill="#231F20" p-id="2916"></path><path d="M511.636016 528.093308c-6.499721 0-12.995442-1.39194-19.043182-4.17982-89.248165-41.090234-144.077809-140.33797-133.330271-241.34563 0.911961-8.13965 1.803922-15.019355 2.615888-21.283085 1.987915-15.335341 3.423853-26.418865 3.423852-42.486175 0-18.959185 8.999613-36.77042 24.070966-47.645952 14.447379-10.423552 32.706595-13.091437 50.085848-7.323686 63.457273 21.079094 106.015445 11.047525 134.178235 4.411811 11.423509-2.691884 20.48712-4.839792 28.526774-4.455809 15.13535-0.23199 29.79072 5.58776 40.462261 16.019312 10.363555 10.135564 16.075309 23.790978 16.075309 38.458348 0.571975 24.458949 3.291859 48.313924 5.291773 64.109245a3.25186 3.25186 0 0 1 0.019999 0.195991c10.747538 101.01166-44.082106 200.255395-133.330271 241.34963a45.574042 45.574042 0 0 1-19.047181 4.17582z m-90.456114-347.281077a33.998539 33.998539 0 0 0-20.103136 6.555718c-9.879575 7.127694-15.775322 18.875189-15.775322 31.42665 0 17.355254-1.583932 29.582729-3.591846 45.058064-0.799966 6.159735-1.675928 12.927445-2.567889 20.883102-9.843577 92.548023 40.246271 183.452117 121.818765 221.010504a25.470906 25.470906 0 0 0 21.355083 0c81.540496-37.542387 131.622344-128.402483 121.822765-220.970505-2.051912-16.231303-4.835792-40.72625-5.431766-66.285152 0-12.071481-5.471765-19.903145-10.059568-24.390952-6.931702-6.783709-16.467292-10.503549-26.414865-10.319557-0.263989 0.004-0.527977 0-0.791966-0.011999-5.223776-0.295987-13.567417 1.663929-23.211003 3.931831-28.514775 6.723711-76.236724 17.963228-145.069766-4.89579a38.078364 38.078364 0 0 0-11.979486-1.991914zM714.963279 1018.356243a9.99957 9.99957 0 0 1-9.99957-9.999571v-221.302491a9.99957 9.99957 0 1 1 19.99914 0V1008.356672a9.99957 9.99957 0 0 1-9.99957 9.999571zM309.372707 1018.356243a9.99957 9.99957 0 0 1-9.999571-9.999571v-221.302491a9.99957 9.99957 0 1 1 19.999141 0V1008.356672a9.99957 9.99957 0 0 1-9.99957 9.999571z" fill="#231F20" p-id="2917"></path><path d="M347.435071 254.253075a9.987571 9.987571 0 0 1-9.615587-7.255688c-9.415595-32.986583-26.174875-114.175094 19.527161-160.909086 4.315815-9.279601 23.958971-43.738121 80.084559-50.609825 28.582772-3.49985 49.301882-15.963314 56.457574-26.06688 3.795837-5.35577 9.967572-8.747624 16.667284-9.211605a7.43968 7.43968 0 0 1 1.447938-0.083996c0.487979-0.015999 0.979958 0.019999 1.455937 0.083996 6.695712 0.46798 12.859447 3.855834 16.655285 9.207605 7.159692 10.103566 27.878802 22.57103 56.457574 26.07088 56.129588 6.871705 75.768744 41.330224 80.084559 50.609825 45.694037 46.725992 28.938757 127.918504 19.519161 160.905086a9.987571 9.987571 0 0 1-13.27543 6.559718 45.790032 45.790032 0 0 0-16.815277-3.219862c-1.555933 0-3.25586 0.107995-5.203777 0.327986a9.991571 9.991571 0 0 1-11.095523-9.255602c-0.563976-8.255645-0.91996-15.751323-1.087953-22.915015 0-12.075481-5.471765-19.907145-10.059568-24.390952a36.474433 36.474433 0 0 0-26.414865-10.319557c-0.259989 0.008-0.527977 0-0.791966-0.011999-5.223776-0.295987-13.567417 1.663929-23.211002 3.931831-28.514775 6.723711-76.236724 17.963228-145.069767-4.89579-11.383511-3.783837-22.771022-2.159907-32.082621 4.559804-9.879575 7.127694-15.775322 18.875189-15.775323 31.42665a252.069169 252.069169 0 0 1-1.011956 22.831019 9.99957 9.99957 0 0 1-11.091524 9.047611 46.569999 46.569999 0 0 0-5.287772-0.331986c-5.723754 0-11.379511 1.083953-16.815278 3.219862a9.903574 9.903574 0 0 1-3.651843 0.69597z m164.568929-234.101941c-0.771967 0.035998-1.455937 0.347985-1.795923 0.827965-9.211604 12.999441-33.162575 29.802719-70.344977 34.354523-51.009808 6.247732-64.217241 38.662339-64.753218 40.03828-0.515978 1.319943-1.335943 2.595888-2.347899 3.583846-36.330439 35.590471-25.762893 102.039615-18.287214 132.778295 3.47985-0.731969 6.999699-1.175949 10.547546-1.331943 0.187992-3.819836 0.275988-7.631672 0.275989-11.607501 0-18.959185 8.999613-36.77042 24.070965-47.645953 14.447379-10.423552 32.706595-13.091437 50.085848-7.323685 63.457273 21.079094 106.015445 11.047525 134.178235 4.41181 11.423509-2.691884 20.48712-4.839792 28.526774-4.455808 15.063353-0.331986 29.79072 5.58776 40.462261 16.019311 10.363555 10.135564 16.075309 23.790978 16.07531 38.458348 0.091996 3.843835 0.247989 7.883661 0.46398 12.151478a64.957209 64.957209 0 0 1 10.359555 1.323943c7.479679-30.742679 18.047225-97.191824-18.279215-132.778295a9.947573 9.947573 0 0 1-2.375898-3.663843c-0.507978-1.299944-13.715411-33.718551-64.725219-39.962282-37.182402-4.551804-61.133373-21.351083-70.344977-34.354524-0.339985-0.47598-1.019956-0.787966-1.791923-0.823965zM714.967279 1023.956002H309.372707a9.99957 9.99957 0 0 1-9.999571-9.99957v-168.03278H202.429302c-0.211991 0.011999-0.359985 0.011999-0.511978 0.011999a9.987571 9.987571 0 0 1-9.983571-10.555546l10.647542-191.159786a68.741046 68.741046 0 0 1 52.085762-63.117288l79.512584-20.01514a510.14608 510.14608 0 0 0 44.954068-13.555418l40.818246-20.127135a23.638984 23.638984 0 0 0 13.27543-21.343083v-26.826847a10.00357 10.00357 0 0 1 16.711282-7.411682c15.547332 14.083395 32.710594 25.498904 51.013808 33.922543a25.470906 25.470906 0 0 0 21.355082 0c18.735195-8.623629 36.238443-20.347126 52.029764-34.838503a9.99957 9.99957 0 0 1 16.75928 7.371683v27.778806a23.646984 23.646984 0 0 0 13.27143 21.343083l42.858158 21.131092a532.353125 532.353125 0 0 0 40.666253 11.987485l81.760487 20.583116a68.733047 68.733047 0 0 1 52.085762 63.117288l10.647542 191.179785a10.01157 10.01157 0 0 1-2.819878 7.535676 10.195562 10.195562 0 0 1-7.991657 2.987872h-96.631848l0.004 168.03278a9.99957 9.99957 0 0 1-9.979571 9.99957z m-395.595002-19.999141h385.595431l-0.003999-168.03278a9.99957 9.99957 0 0 1 9.99957-9.99957h96.883837l-10.059568-180.59224a48.833902 48.833902 0 0 0-37.00241-44.838073l-81.760487-20.583116a551.468304 551.468304 0 0 1-42.842159-12.655456 9.851577 9.851577 0 0 1-1.199948-0.499979l-43.446133-21.419079a43.51813 43.51813 0 0 1-24.426951-39.278313v-6.423724a218.414615 218.414615 0 0 1-40.426263 24.278957 45.450047 45.450047 0 0 1-38.086363 0 217.83864 217.83864 0 0 1-39.362309-23.490991v5.639758c0 16.803278-9.359598 31.850631-24.43095 39.278312l-41.350223 20.391124a9.55159 9.55159 0 0 1-1.083954 0.455981 529.305256 529.305256 0 0 1-47.301967 14.295385l-79.512584 20.01514a48.833902 48.833902 0 0 0-37.00241 44.838074l-10.059568 180.59224h96.883837a9.99957 9.99957 0 0 1 9.999571 9.99957V1003.956861z m502.45041-158.033209h0.039999-0.039999z" fill="#231F20" p-id="2918"></path><path d="M804.787419 1023.956002H219.544566a36.186445 36.186445 0 0 1-26.190874-11.279515 36.190445 36.190445 0 0 1-9.803579-26.77485l5.703755-102.447598a10.00757 10.00757 0 0 1 11.207518-9.363598c0.563976 0.067997 1.131951 0.123995 1.711927 0.123995h97.195823v-28.286784H202.429302c-0.207991 0.011999-0.359985 0.011999-0.511978 0.011999a9.987571 9.987571 0 0 1-9.983571-10.555546l10.647542-191.159787a68.741046 68.741046 0 0 1 52.085762-63.117287l79.512584-20.01514a510.14608 510.14608 0 0 0 44.954068-13.555418l29.214745-14.403381a9.991571 9.991571 0 0 1 12.511462 3.091867l25.230916 34.734508a81.90848 81.90848 0 0 0 66.077161 33.666553 81.91648 81.91648 0 0 0 66.077161-33.670553l25.230915-34.734508a10.00357 10.00357 0 0 1 12.511463-3.091867l31.246657 15.407338a533.733066 533.733066 0 0 0 40.670253 11.987485l81.760486 20.583116a68.733047 68.733047 0 0 1 52.085762 63.117287l10.651543 191.179786a10.01157 10.01157 0 0 1-2.819879 7.535676 10.279558 10.279558 0 0 1-7.991657 2.987872h-96.631848v28.286784h96.863838c0.651972 0 1.287945-0.071997 1.915918-0.159993a9.991571 9.991571 0 0 1 11.335513 9.351598l5.707755 102.491596a36.210444 36.210444 0 0 1-9.803579 26.782849A36.198445 36.198445 0 0 1 804.787419 1023.956002zM208.685033 894.209577l-5.167778 92.804012c-0.247989 4.447809 1.303944 8.683627 4.363813 11.919488S215.088758 1003.956861 219.544566 1003.956861H804.787419c4.459808 0 8.59963-1.783923 11.663499-5.023784a15.907316 15.907316 0 0 0 4.367812-11.923488l-5.167778-92.800012h-100.687673a9.99957 9.99957 0 0 1-9.99957-9.99957V835.924081a9.99957 9.99957 0 0 1 9.99957-9.99957h96.883837l-10.059568-180.59224a48.833902 48.833902 0 0 0-36.99841-44.838073l-81.760487-20.583116c-14.399381-3.623844-28.814762-7.883661-42.842159-12.655456a9.851577 9.851577 0 0 1-1.199948-0.499979l-24.278957-11.971485-20.279129 27.9148c-19.067181 26.246872-49.81386 41.914199-82.252466 41.914199s-63.189285-15.667327-82.252465-41.914199l-20.279129-27.9148-22.187047 10.93953a9.867576 9.867576 0 0 1-1.083953 0.45598 529.305256 529.305256 0 0 1-47.301967 14.295386l-79.512584 20.01514a48.833902 48.833902 0 0 0-37.00241 44.838073l-10.059568 180.59224h96.883837a9.99957 9.99957 0 0 1 9.999571 9.999571v48.285925a9.99957 9.99957 0 0 1-9.999571 9.99957H208.685033z" fill="#231F20" p-id="2919"></path><path d="M589.680662 648.14815a9.983571 9.983571 0 0 1-7.415681-3.287859l-32.186617-35.546472a9.995571 9.995571 0 0 1 2.463894-15.403339 81.084516 81.084516 0 0 0 25.694896-22.963013l25.234916-34.734507a10.00357 10.00357 0 0 1 12.511462-3.091868l31.246657 15.407338c3.395854 1.143951 6.815707 2.199905 10.23956 3.255861l2.587889 0.803965a9.991571 9.991571 0 0 1 5.11978 15.427337l-28.770764 39.602298a152.861432 152.861432 0 0 1-41.330224 38.946327 9.943573 9.943573 0 0 1-5.395768 1.583932z m-16.915273-43.574128l18.463207 20.391124a132.262317 132.262317 0 0 0 28.998754-29.09875l20.619114-28.38278-0.671971-0.22799a9.851577 9.851577 0 0 1-1.199949-0.499979l-24.278957-11.971485-20.279128 27.9148a100.287691 100.287691 0 0 1-21.65107 21.87506zM433.195386 647.240189c-1.899918 0-3.811836-0.539977-5.495764-1.647929a152.953428 152.953428 0 0 1-39.774291-37.970369l-28.834761-39.694294a9.99957 9.99957 0 0 1 5.055783-15.407338c5.783751-1.839921 10.567546-3.431853 14.991356-4.991786l29.214745-14.403381a9.991571 9.991571 0 0 1 12.511462 3.091867l25.230916 34.734508a81.136514 81.136514 0 0 0 24.358953 22.191046 10.00357 10.00357 0 0 1 2.303901 15.307343l-32.142619 35.498474a9.995571 9.995571 0 0 1-7.419681 3.291859z m-49.877857-79.988563l20.787107 28.61477a132.758296 132.758296 0 0 0 27.618813 28.102793l18.487206-20.415123a100.963662 100.963662 0 0 1-20.299128-20.851104l-20.275129-27.914801-22.187046 10.93953a9.55159 9.55159 0 0 1-1.083954 0.455981c-0.999957 0.355985-2.011914 0.711969-3.047869 1.067954zM821.822687 894.209577h-106.863408a9.99957 9.99957 0 0 1-9.99957-9.99957V835.924081a9.99957 9.99957 0 0 1 9.99957-9.99957h106.863408c18.827191 0 34.142533 15.315342 34.142533 34.142533 0 18.827191-15.315342 34.142533-34.142533 34.142533z m-96.859838-19.999141h96.863838c7.799665 0 14.143392-6.343727 14.143392-14.143392s-6.343727-14.143392-14.143392-14.143392h-96.863838v28.286784zM309.372707 894.209577h-107.195394c-18.827191 0-34.142533-15.315342-34.142533-34.142533 0-18.827191 15.315342-34.142533 34.142533-34.142533h107.195394a9.99957 9.99957 0 0 1 9.99957 9.99957v48.285926a9.99957 9.99957 0 0 1-9.99957 9.99957z m-107.195394-48.285925c-7.799665 0-14.143392 6.343727-14.143393 14.143392s6.343727 14.143392 14.143393 14.143392h97.195823v-28.286784h-97.195823z" fill="#231F20" p-id="2920"></path><path d="M804.791419 1023.956002h-89.82414a9.99957 9.99957 0 0 1-9.999571-9.99957l-0.003999-129.746425a9.99957 9.99957 0 0 1 9.99957-9.999571h106.863408c0.651972 0 1.287945-0.071997 1.915918-0.159993a9.991571 9.991571 0 0 1 11.335513 9.351598l5.707754 102.495596c0.547976 9.851577-3.02387 19.611157-9.803578 26.77885s-16.327298 11.279515-26.190875 11.279515z m-79.82457-19.999141h79.82457a15.919316 15.919316 0 0 0 11.663499-5.019784 15.907316 15.907316 0 0 0 4.367812-11.923488l-5.167778-92.800012h-90.688103V1003.956861zM309.372707 1023.956002H219.544566c-9.863576 0-19.411166-4.111823-26.190874-11.279515s-10.351555-16.927273-9.803579-26.77885l5.703755-102.443598a10.00757 10.00757 0 0 1 11.207518-9.363598c0.563976 0.067997 1.131951 0.123995 1.711927 0.123995h107.195394a9.99957 9.99957 0 0 1 9.99957 9.99957V1013.956432a9.991571 9.991571 0 0 1-9.99557 9.99957z m-100.687674-129.746425l-5.167778 92.804012c-0.247989 4.451809 1.303944 8.683627 4.363813 11.923488S215.088758 1003.956861 219.544566 1003.956861h79.82857v-109.747284H208.685033z" fill="#231F20" p-id="2921"></path></svg>